<?xml version="1.0" encoding="UTF-8"?>
<svg id="a" data-name="Line art" xmlns="http://www.w3.org/2000/svg" viewBox="0 0 369.69 344">
  <defs>
    <style>
      .f, .g, .h, .i, .j, .k, .l {
        stroke: #000;
      }

      .f, .g, .h, .i, .j, .l {
        stroke-width: 5px;
      }

      .f, .g, .j, .k, .l {
        stroke-miterlimit: 10;
      }

      .g {
        fill: #ffaf03;
      }

      .h {
        stroke-miterlimit: 133.33;
      }

      .h, .i, .l {
        fill: none;
      }

      .i {
        stroke-linecap: square;
        stroke-linejoin: bevel;
      }

      .j {
        fill: #900000;
      }

      .k {
        fill: red;
        stroke-width: .5px;
      }
    </style>
  </defs>
  <circle id="b" data-name="fondo" class="k" cx="154.45" cy="175.88" r="154.2"/>
  <g id="c" data-name="Farola">
    <g id="d" data-name="Shape">
      <path class="f" d="M215,84.91c-6.78-12.55-15.01-21.77-20.99-27.65H115.53c-5.97,5.88-14.21,15.1-20.99,27.65-6.16,11.4-11.77,27.51-11.19,74.4,.67,54.7,1.49,86.16,23.14,115.97,6.3,8.68,12.7,14.91,17.14,18.84,10.5,.11,20.98,.26,31.47,.38,10.26-.12,20.53-.26,30.8-.38,4.44-3.92,10.85-10.16,17.15-18.84,21.66-29.81,22.48-61.27,23.15-115.97,.57-46.89-5.03-63-11.2-74.4Zm-60.55,140.97c-27.61,0-50-22.39-50-50s22.39-50,50-50,50,22.39,50,50-22.39,50-50,50Z"/>
      <path class="j" d="M123.63,294.12c-1.29-.02-2.59-.04-3.88-.05,0,0-13.34-3.74-33.07-22.4-9.87-9.34-14.93-24.14-17.53-36.6-2.6-12.48-2.74-22.61-2.74-22.61-2.79-50.01-2.66-58.13-2.66-58.13,.52-33.5,.83-52.82,13.33-70.93,9.9-14.34,23.39-22.04,32.53-26.14h5.92c-5.97,5.88-14.21,15.1-20.99,27.65-6.16,11.4-11.77,27.51-11.19,74.4,.67,54.7,1.49,86.16,23.14,115.97,6.3,8.68,12.7,14.91,17.14,18.84Z"/>
      <circle class="l" cx="154.45" cy="175.88" r="50"/>
      <path class="j" d="M243.79,212.46s-.14,10.13-2.74,22.61c-2.6,12.46-7.66,27.26-17.53,36.6-19.73,18.66-33.07,22.4-33.07,22.4-1.52,.02-3.03,.03-4.55,.05,4.44-3.92,10.85-10.16,17.15-18.84,21.66-29.81,22.48-61.27,23.15-115.97,.57-46.89-5.03-63-11.2-74.4-6.78-12.55-15.01-21.77-20.99-27.65h6.58c9.14,4.1,22.63,11.8,32.53,26.14,12.5,18.11,12.81,37.43,13.33,70.93,0,0,.13,8.12-2.66,58.13Z"/>
      <path class="l" d="M118.45,37.2h73.01c4.88,0,8.84,3.96,8.84,8.84v11.16H109.61v-11.16c0-4.88,3.96-8.84,8.84-8.84Z"/>
      <path class="l" d="M120.09,294.49h70.27v10.26c0,5.37-4.36,9.74-9.74,9.74h-50.79c-5.37,0-9.74-4.36-9.74-9.74v-10.26h0Z"/>
    </g>
    <g id="e" data-name="Decoration">
      <path class="l" d="M124.09,294.52l-.02-.02c-.14-.12-.29-.25-.44-.38"/>
      <path class="l" d="M115.55,57.24l-.02,.02"/>
      <path class="l" d="M185.45,294.52l.02-.02c.14-.12,.28-.25,.43-.38"/>
      <path class="l" d="M194.01,57.26l-.02-.02"/>
      <g>
        <circle class="g" cx="154.45" cy="175.88" r="50"/>
        <g>
          <path class="h" d="M139.64,164.26l-12.47,12.47,12.47,12.47"/>
          <path class="h" d="M170.81,164.26l12.47,12.47-12.47,12.47"/>
          <path class="i" d="M161.46,151.79l-12.91,48.18"/>
        </g>
      </g>
    </g>
  </g>
</svg>